# xmcd
#
# Track frame offsets:
#	150
#	12339
#	25294
#	40743
#	51789
#	66448
#	77984
#	94167
#	109988
#	123250
#	136250
#	148713
#	162808
#	178186
#	195057
#
# Disc length: 2825 seconds
#
# Revision: 0
# Processed by: cddbd v1.5.2PL0 Copyright (c) Steve Scherf et al.
# Submitted via: audiograbber 1.83.01
#
DISCID=ca0b070f
DTITLE=Emmylou Harris and Carl Jackson  - I've Always Needed You
DYEAR=2006
DGENRE=Country
TTITLE0=Walk Through This World With M
TTITLE1=Something Draws Me To You
TTITLE2=When My Blue Moon Turns Gold A
TTITLE3=I Take The Chance
TTITLE4=I've Always Needed You
TTITLE5=We Must Have Been Out Of Our M
TTITLE6=Gone, Gone, Gone
TTITLE7=To Keep Your Memory Green
TTITLE8=Under Your Spell Again
TTITLE9=I'll Never Love Another
TTITLE10=You Made A Memory Of Me
TTITLE11=Before I Met You
TTITLE12=Dying On Sorrows Wine
TTITLE13=The Best We Could Do
TTITLE14=Nobody's Darlin' But Mine
EXTD=
EXTT0=
EXTT1=
EXTT2=
EXTT3=
EXTT4=
EXTT5=
EXTT6=
EXTT7=
EXTT8=
EXTT9=
EXTT10=
EXTT11=
EXTT12=
EXTT13=
EXTT14=
PLAYORDER=
